<!-- icon666.com - MILLIONS vector ICONS FREE --><svg id="Layer_5" enable-background="new 0 0 64 64" viewBox="0 0 64 64" xmlns="http://www.w3.org/2000/svg" xmlns:xlink="http://www.w3.org/1999/xlink"><linearGradient id="SVGID_1_" gradientUnits="userSpaceOnUse" x1="32" x2="32" y1="63" y2="1"><stop offset="0" stop-color="#9f2fff"></stop><stop offset="1" stop-color="#0bb1d3"></stop></linearGradient><path d="m14 18c0-.552.448-1 1-1s1 .448 1 1-.448 1-1 1-1-.448-1-1zm7-1c-.552 0-1 .448-1 1s.448 1 1 1 1-.448 1-1-.448-1-1-1zm-1 4.764c-.381.762-1.147 1.236-2 1.236s-1.619-.474-2-1.236l-.105-.211-1.789.895.105.21c.722 1.445 2.174 2.342 3.789 2.342s3.067-.897 3.789-2.342l.105-.211-1.789-.895zm43 40.236v1h-52v-1c0-.587.12-1.142.307-1.666-2.265-.703-4.326-1.939-6.014-3.627-2.769-2.768-4.293-6.448-4.293-10.364v-7.097c0-4.137 2.804-7.728 6.817-8.731l1.183-.296v-2.473c-4.746-1.534-8-5.943-8-10.992v-.192c0-6.375 5.187-11.562 11.562-11.562h9.438c2.757 0 5 2.243 5 5 0 1.627-.793 3.061-2 3.974v8.026c0 1.505-.497 2.997-1.4 4.2-1.112 1.483-2.784 2.453-4.6 2.719v1.301l1.183.295c1.069.267 2.083.742 2.984 1.373.806-.558 1.781-.888 2.833-.888h22c2.757 0 5 2.243 5 5v12c0 2.757-2.243 5-5 5h-5v4h15c2.757 0 5 2.243 5 5zm-22-5v-7c0-.551-.448-1-1-1h-6c-.552 0-1 .449-1 1v7zm-12-4v4h2v-4zm-6-17v12c0 1.654 1.346 3 3 3h5v-1c0-1.654 1.346-3 3-3h6c1.654 0 3 1.346 3 3v1h5c1.654 0 3-1.346 3-3v-12c0-1.654-1.346-3-3-3h-22c-1.654 0-3 1.346-3 3zm-7.68-.906 1.335 1.779 1.556-4.67zm7.68-20.195c-.323.066-.658.101-1 .101h-5.172c-1.445 0-2.691-.815-3.342-2h-.486c-1.103 0-2 .897-2 2v1.414l-.879.879c-.723.723-1.121 1.685-1.121 2.707s.398 1.984 1.121 2.707l.879.879v7l3 3 3-3v-1.586h-.764c-1.76 0-3.343-.978-4.131-2.553l1.789-.895c.447.893 1.344 1.448 2.342 1.448h1.764c1.565 0 3.061-.748 4-2 .645-.859 1-1.925 1-3zm-13.211 17.304 1.556 4.67 1.335-1.779zm-.789-6.583v-1.206l-.293-.293c-1.101-1.1-1.707-2.564-1.707-4.121s.606-3.021 1.707-4.121l.293-.293v-.586c0-2.206 1.794-4 4-4h.017c.043-.957.423-1.853 1.104-2.535l.173-.173 1.412 1.416-.172.171c-.344.345-.534.804-.534 1.292 0 1.009.82 1.829 1.828 1.829h5.172c1.654 0 3-1.346 3-3s-1.346-3-3-3h-9.438c-5.273 0-9.562 4.289-9.562 9.562v.192c0 3.953 2.413 7.429 6 8.866zm-6 13.626v6.754h4v-8h2v8.171c0 1.557.606 3.021 1.707 4.122 1.044 1.044 2.416 1.644 3.884 1.702l1.081-1.081c.581-.581 1.385-.914 2.207-.914 1.721 0 3.121 1.4 3.121 3.121v.005c1.724.445 3 2.013 3 3.874h3v-4h-1c-2.757 0-5-2.243-5-5v-12c0-.972.291-1.873.773-2.642-.495-.316-1.03-.567-1.588-.751l-2.84 8.52-3.345-4.46-3.345 4.46-2.835-8.507c-2.855.938-4.82 3.581-4.82 6.626zm9.387 19.317c.911-.958 2.19-1.563 3.613-1.563h6c0-1.103-.897-2-2-2h-1v-1.879c0-.618-.503-1.121-1.121-1.121-.295 0-.584.12-.793.328l-1.672 1.672h-.586c-2.092 0-4.058-.814-5.535-2.293-1.037-1.037-1.738-2.316-2.07-3.707h-4.103c.358 2.752 1.592 5.299 3.587 7.293 1.577 1.577 3.533 2.696 5.68 3.27zm48.442 2.437c-.413-1.164-1.525-2-2.829-2h-42c-1.304 0-2.416.836-2.829 2zm-27.829-54h2v-2h-2zm4 0h2v-2h-2zm4 0h2v-2h-2zm-8 6h8v6h-8zm2 4h4v-2h-4zm10-4h-2v2h2zm2 2h8v-2h-8zm-4 4h12v-2h-12zm13-18c1.654 0 3 1.346 3 3v16c0 1.654-1.346 3-3 3h-14v1.586c0 1.331-1.083 2.414-2.414 2.414-.637 0-1.259-.258-1.708-.708l-3.292-3.292h-2.586c-1.654 0-3-1.346-3-3v-16c0-1.654 1.346-3 3-3zm1 19v-9h-26v9c0 .551.448 1 1 1h3.414l3.879 3.879c.239.238.707.045.707-.293v-3.586h16c.552 0 1-.449 1-1zm-1-17h-24c-.552 0-1 .449-1 1v5h26v-5c0-.551-.448-1-1-1zm-41 40h-2v2h2zm0 4h-2v2h2zm0-8h-2v2h2z" fill="url(#SVGID_1_)"></path></svg>