<svg width="118" height="118" viewBox="0 0 118 118" fill="none" xmlns="http://www.w3.org/2000/svg">
<path d="M118 59.0664L107.901 45.911L110.16 29.5664L94.7455 23.4538L88.6329 8.03938L72.2883 10.2984L59 0.0664062L45.8446 10.1655L29.5 7.9065L23.3874 23.3209L7.97297 29.4335L10.232 45.7781L0 59.0664L10.0991 72.2218L7.84009 88.5664L23.2545 94.679L29.3671 110.093L45.7117 107.834L58.8671 117.934L72.0225 107.834L88.3671 110.093L94.4797 94.679L109.894 88.4335L107.635 72.0889L118 59.0664ZM54.2162 78.2015L34.5495 61.9898L38.8018 56.8074L53.4189 68.7669L78.4009 39.9313L83.4505 44.3164L54.2162 78.2015Z" fill="#7DC4BB"/>
</svg>
