<svg width="126" height="126" viewBox="0 0 126 126" fill="none" xmlns="http://www.w3.org/2000/svg">
<path d="M118.355 106.867V11.4498H64.921V7.63335H61.1043V0H45.7879V7.63335H41.9713V45.8498H45.7879V53.4834H61.1043V45.8498H64.921V30.5831H99.2216V64.8835H24.8212V68.7499H34.3379V80.1999H40.063V90.5174L49.6049 100.059V106.867H9.52939V122.133H1.9209V126H124.08V106.867H118.355V106.867ZM49.6543 3.86639H57.238V7.63335H49.6543V3.86639ZM57.238 49.617H49.6543V45.8498H57.238V49.617ZM61.0546 41.9834H45.8376V11.4997H61.0546V41.9834ZM70.5967 26.7167H64.9213V15.3162H70.5967V26.7167ZM74.4631 26.7167V15.3162H114.489V106.867H103.088V30.5829H110.697V26.7165H74.4631V26.7167ZM38.2043 76.3338V68.7499H99.2216V76.3338H38.2043ZM46.6633 91.6502H62.988V87.7838H43.9292V80.1999H99.2216V106.867H53.4712V98.4579L46.6633 91.6502ZM13.3958 122.134V110.734H120.213V122.134H13.3958Z" fill="#7DC4BB"/>
<path d="M57.2623 17.1748H49.6289V21.0412H57.2623V17.1748Z" fill="#7DC4BB"/>
<path d="M57.2623 24.8096H49.6289V28.676H57.2623V24.8096Z" fill="#7DC4BB"/>
<path d="M57.2623 32.4414H49.6289V36.3078H57.2623V32.4414Z" fill="#7DC4BB"/>
<path d="M80.1626 17.1748H76.3457V21.0412H80.1626V17.1748Z" fill="#7DC4BB"/>
<path d="M85.887 17.1748H82.0703V21.0412H85.887V17.1748Z" fill="#7DC4BB"/>
<path d="M91.6145 17.1748H87.7979V21.0412H91.6145V17.1748Z" fill="#7DC4BB"/>
<path d="M85.8887 103.1C91.1637 103.1 95.4553 98.8085 95.4553 93.5332C95.4553 88.2582 91.164 83.9668 85.8887 83.9668C80.6137 83.9668 76.3223 88.2582 76.3223 93.5332C76.3218 98.8085 80.6137 103.1 85.8887 103.1ZM85.8887 87.8332C89.0318 87.8332 91.589 90.3903 91.589 93.5332C91.589 96.6763 89.032 99.2335 85.8887 99.2335C82.7456 99.2335 80.1887 96.6763 80.1887 93.5332C80.1882 90.3903 82.7456 87.8332 85.8887 87.8332Z" fill="#7DC4BB"/>
<path d="M87.7971 91.5996H83.9805V95.466H87.7971V91.5996Z" fill="#7DC4BB"/>
<path d="M70.6226 87.7852H66.8057V91.6515H70.6226V87.7852Z" fill="#7DC4BB"/>
<path d="M21.0042 114.502H17.1875V118.368H21.0042V114.502Z" fill="#7DC4BB"/>
<path d="M116.421 114.502H112.604V118.368H116.421V114.502Z" fill="#7DC4BB"/>
<path d="M108.79 114.502H24.8223V118.368H108.79V114.502Z" fill="#7DC4BB"/>
</svg>
