<svg width="142" height="141" viewBox="0 0 142 141" fill="none" xmlns="http://www.w3.org/2000/svg">
<path d="M69.1453 20.5414C49.3852 21.462 33.0441 36.7963 31.1898 56.3884C30.2626 68.3278 34.5797 80.296 43.5326 88.5528C49.0955 93.7601 52.1667 100.205 52.1667 107.253V132.685C52.1667 134.527 53.4126 135.764 55.2669 135.764H67.9284V137.922C67.9284 139.763 69.1743 141 71.0286 141C72.8829 141 74.1288 139.763 74.1288 137.922V135.764H86.7903C88.3259 135.764 89.8904 134.527 89.8904 133.002V107.253C89.8904 100.205 92.9906 93.7601 98.2349 88.8693C106.261 81.5043 110.896 70.802 110.896 60.0709C110.809 37.6881 91.9765 19.3043 69.1453 20.5414ZM58.6568 111.54H83.6611V117.38H58.6568V111.54ZM58.6568 129.636V123.508H83.6611V129.636H58.6568ZM93.8309 84.2662C87.7464 90.0201 84.0957 97.4139 83.6901 105.412H58.5699C58.0194 97.6153 54.3687 90.1639 48.1683 84.2662C40.4613 77.2176 36.7527 67.4072 37.6799 56.9926C39.2155 40.45 52.8041 27.5612 69.464 26.6406C88.5866 25.72 104.638 41.0542 104.638 60.0421C104.638 69.2484 100.64 77.8505 93.8309 84.2662Z" fill="#7DC4BB"/>
<path d="M78.7074 52.4184L79.0262 39.2419C79.0262 36.9116 75.926 35.0703 73.7819 37.0842L46.3149 64.3578C43.939 66.7169 45.4746 69.5651 48.4879 69.5651H63.0037L61.7578 83.6622C61.7578 86.8269 64.9739 87.69 67.0021 86.1076L95.715 57.5969C97.5114 56.0721 96.9029 52.3896 93.542 52.3896H78.7074V52.4184ZM68.5377 76.0095L69.4648 67.1197C69.6966 65.3935 68.8564 63.7536 66.3647 63.7536H55.8762L72.5361 47.2111L72.2173 55.7844C72.2173 58.3162 74.0137 58.8628 75.3175 58.8628H85.806L68.5377 76.0095Z" fill="#7DC4BB"/>
<path d="M74.0708 0H67.8994V12.86H74.0708V0Z" fill="#7DC4BB"/>
<path d="M30.6599 15.3809L39.8176 24.4741L35.4539 28.8071L26.2959 19.7139L30.6599 15.3809Z" fill="#7DC4BB"/>
<path d="M23.7725 56.7051H10.8213V62.833H23.7725V56.7051Z" fill="#7DC4BB"/>
<path d="M131.179 56.7051H118.228V62.833H131.179V56.7051Z" fill="#7DC4BB"/>
<path d="M106.617 28.8002L102.253 24.4672L111.411 15.374L115.774 19.707L106.617 28.8002Z" fill="#7DC4BB"/>
</svg>
