<svg width="133" height="133" viewBox="0 0 133 133" fill="none" xmlns="http://www.w3.org/2000/svg">
<path d="M130.271 47.5138L127.622 43.0697C126.887 41.8369 125.293 41.4337 124.061 42.1681C122.828 42.9027 122.425 44.4969 123.159 45.7295L125.8 50.1616C128.218 54.2688 128.463 59.3018 126.456 63.6245L116.587 84.8828H94.0688L90.9082 75.0086C90.3549 73.2796 90.4796 71.4243 91.2597 69.7849L99.8024 51.8314C101.114 49.0394 104.588 47.8606 107.329 49.294C109.952 50.6648 111.02 53.8365 109.767 56.5038L104.672 67.214C104.056 68.5095 104.607 70.0595 105.902 70.6757C106.263 70.8471 106.643 70.9281 107.017 70.9281C107.988 70.9281 108.919 70.3811 109.364 69.4457L114.464 58.7246C116.718 53.9272 115.129 48.3175 110.877 45.3814L98.3188 23.7579C96.9491 21.3992 97.6832 18.4119 99.9899 16.9564C102.36 15.462 105.584 16.2374 107.017 18.6408L111.48 26.1311C112.215 27.3637 113.81 27.7671 115.042 27.0328C116.274 26.2984 116.678 24.704 115.943 23.4716L111.479 15.9813C109.302 12.3276 104.957 10.3591 100.77 11.1561C99.5104 11.3959 98.3017 11.8788 97.2177 12.5627C92.5359 15.5165 91.0462 21.58 93.8262 26.3673L103.784 43.5142C100.042 43.8771 96.7 46.2056 95.0996 49.6109L86.5683 67.5533C85.2186 70.3904 85.0027 73.6009 85.9604 76.5929L88.614 84.8833H86.9304C85.4957 84.8833 84.3328 86.0463 84.3328 87.481V106.135L79.1715 124.536C78.7839 125.917 79.5897 127.351 80.9711 127.739C81.2057 127.804 81.4418 127.836 81.674 127.836C82.8092 127.836 83.8522 127.086 84.1738 125.939L88.8997 109.09H120.941V125.237C120.941 126.672 122.104 127.835 123.538 127.835C124.973 127.835 126.136 126.672 126.136 125.237V106.492V87.4807C126.136 86.0461 124.973 84.8831 123.538 84.8831H122.316L131.169 65.8126C133.894 59.9405 133.561 53.1045 130.271 47.5138ZM89.5278 103.894V90.0779H118.245H120.94V103.894H89.5278Z" fill="#7DC4BB"/>
<path d="M48.6674 106.134V87.4803C48.6674 86.0456 47.5045 84.8827 46.0698 84.8827H44.3862L47.0397 76.5922C47.9975 73.6 47.7816 70.3898 46.4316 67.5526L37.9058 49.6214C36.3036 46.2123 32.9651 43.8764 29.2161 43.5135L39.174 26.3666C41.954 21.5796 40.4643 15.5159 35.7822 12.5621C33.4272 11.0762 30.6389 10.6151 27.9308 11.2646C25.2227 11.9137 22.9464 13.5884 21.5208 15.9806L2.72225 47.5262C-0.561461 53.1049 -0.894222 59.9409 1.83151 65.8124L10.6849 84.8829H9.46215C8.02746 84.8829 6.86449 86.0459 6.86449 87.4806V106.492V125.237C6.86449 126.672 8.02746 127.835 9.46215 127.835C10.8968 127.835 12.0598 126.672 12.0598 125.237V109.09H44.1005L48.8264 125.939C49.148 127.086 50.1907 127.836 51.3261 127.836C51.5584 127.836 51.7945 127.804 52.0291 127.738C53.4103 127.351 54.2161 125.917 53.8287 124.536L48.6674 106.134ZM6.54368 63.6244C4.53672 59.3016 4.78194 54.2687 7.19231 50.1734L25.9838 18.6406C26.6862 17.4621 27.8077 16.637 29.1421 16.317C30.4755 15.9972 31.8499 16.2243 33.0105 16.9563C35.3172 18.4118 36.0513 21.3991 34.6816 23.7578L22.1237 45.3815C17.8713 48.3177 16.2826 53.9281 18.542 58.7356L23.6363 69.4458C24.081 70.3812 25.0128 70.9283 25.9838 70.9283C26.3576 70.9283 26.7377 70.847 27.098 70.6758C28.3934 70.0596 28.9441 68.5098 28.328 67.2141L23.2389 56.5149C21.98 53.8367 23.0485 50.6649 25.6711 49.2941C28.4443 47.8446 31.8605 49.0614 33.2033 51.8427L41.7405 69.785C42.5206 71.4247 42.6453 73.2799 42.092 75.0089L38.9314 84.8829H16.4127L6.54368 63.6244ZM12.0596 103.894V90.078H43.4721V103.894H12.0596Z" fill="#7DC4BB"/>
<path d="M118.095 36.7374C120.059 38.0235 122.678 36.1693 122.04 33.886C121.4 31.5935 118.135 31.3371 117.165 33.5262C116.66 34.6653 117.058 36.0459 118.095 36.7374Z" fill="#7DC4BB"/>
<path d="M87.2927 49.6199C90.0431 46.8851 91.5118 43.0927 91.3229 39.2105C90.9803 32.1729 85.1948 26.451 78.1515 26.1843C74.3872 26.0429 70.8172 27.4 68.1068 30.0096C67.5114 30.5826 66.975 31.1993 66.5002 31.8521C66.0253 31.199 65.4884 30.5824 64.8933 30.0093C62.1828 27.4 58.6157 26.0398 54.8483 26.1843C47.8055 26.4513 42.02 32.1732 41.6774 39.2108C41.4883 43.0927 42.9567 46.8845 45.7071 49.6194L59.9808 64.4388C61.7025 66.2265 64.0181 67.211 66.5002 67.2113C68.9822 67.2113 71.2978 66.2265 73.0198 64.4388L87.2927 49.6199ZM66.4999 62.0157C65.4424 62.0157 64.4561 61.5962 63.7227 60.8345L49.4288 45.9941C49.4143 45.979 49.3997 45.9642 49.3852 45.9496C47.6416 44.224 46.7473 41.9204 46.8667 39.463C47.0795 35.0937 50.6718 31.5412 55.0452 31.3754C55.1575 31.3713 55.2689 31.3692 55.3806 31.3692C57.5995 31.3692 59.687 32.208 61.29 33.7515C62.9749 35.3735 63.9028 37.5545 63.9028 39.8924C63.9028 41.3271 65.0657 42.4901 66.5004 42.4901C67.9351 42.4901 69.0981 41.3271 69.0981 39.8924C69.0981 37.5545 70.026 35.3738 71.7106 33.7518C73.3941 32.1308 75.6104 31.2894 77.9551 31.3757C82.3285 31.5414 85.9214 35.0937 86.1339 39.4633C86.2533 41.9207 85.3592 44.2248 83.6154 45.9502C83.6006 45.9647 83.5861 45.9795 83.5718 45.9946L69.2779 60.8348C68.5438 61.5964 67.5572 62.0157 66.4999 62.0157Z" fill="#7DC4BB"/>
<path d="M65.4873 16.2561H68.7863V19.5551C68.7863 20.9898 69.9493 22.1528 71.384 22.1528C72.8187 22.1528 73.9817 20.9898 73.9817 19.5551V16.2561H77.2807C78.7154 16.2561 79.8784 15.0931 79.8784 13.6584C79.8784 12.2237 78.7154 11.0608 77.2807 11.0608H73.9817V7.76173C73.9817 6.32704 72.8187 5.16406 71.384 5.16406C69.9493 5.16406 68.7863 6.32704 68.7863 7.76173V11.0608H65.4873C64.0526 11.0608 62.8896 12.2237 62.8896 13.6584C62.8896 15.0931 64.0526 16.2561 65.4873 16.2561Z" fill="#7DC4BB"/>
<path d="M80.7532 78.7165C80.7532 77.2818 79.5903 76.1188 78.1556 76.1188H76.818V74.7813C76.818 73.3466 75.6551 72.1836 74.2204 72.1836C72.7857 72.1836 71.6227 73.3466 71.6227 74.7813V76.1188H70.2852C68.8505 76.1188 67.6875 77.2818 67.6875 78.7165C67.6875 80.1512 68.8505 81.3141 70.2852 81.3141H71.6227V82.6517C71.6227 84.0864 72.7857 85.2493 74.2204 85.2493C75.6551 85.2493 76.818 84.0864 76.818 82.6517V81.3141H78.1556C79.5903 81.3141 80.7532 80.1512 80.7532 78.7165Z" fill="#7DC4BB"/>
<path d="M58.117 69.4679C57.2258 67.3303 54.0587 67.3927 53.276 69.5877C52.9053 70.6273 53.2464 71.8313 54.1221 72.5093C54.9684 73.1647 56.1496 73.2353 57.0655 72.682C58.1526 72.0256 58.5968 70.6392 58.117 69.4679Z" fill="#7DC4BB"/>
</svg>
