<svg width="159" height="159" viewBox="0 0 159 159" fill="none" xmlns="http://www.w3.org/2000/svg">
<g clip-path="url(#clip0_26187_3009)">
<path d="M80.9051 77.0254C80.8716 77.0254 80.8382 77.0254 80.8382 77.0254H69.9216C68.5486 77.0254 67.4101 78.1639 67.4101 79.5369V107.398H63.9275C62.5546 107.398 61.416 108.536 61.416 109.909C61.416 111.282 62.5546 112.421 63.9275 112.421H67.4101V116.74H63.9275C62.5546 116.74 61.416 117.879 61.416 119.252C61.416 120.625 62.5546 121.763 63.9275 121.763H67.4101V134.823C67.4101 136.196 68.5486 137.334 69.9216 137.334C71.2945 137.334 72.4331 136.196 72.4331 134.823V121.763H88.3726C89.7455 121.763 90.8841 120.625 90.8841 119.252C90.8841 117.879 89.7455 116.74 88.3726 116.74H72.4331V112.421H80.8382C90.1139 112.421 97.6483 104.551 97.6483 94.8402C97.6483 85.1626 90.3148 77.3268 80.9051 77.0254ZM80.8382 107.398H72.4331V82.0484H80.8047C87.435 82.2828 92.6254 87.9085 92.6254 94.8402C92.6254 101.772 87.3345 107.398 80.8382 107.398Z" fill="#7DC4BB"/>
<path d="M119.615 48.0258L105.015 36.2386C105.819 34.062 106.355 31.7849 106.555 29.4074C106.555 29.3739 106.555 29.3739 106.555 29.3404C107.46 15.8789 98.1839 3.58932 84.9902 0.742976C78.4604 -0.763914 71.5621 0.0397644 65.635 2.98657C59.641 5.96687 55.0198 10.9898 52.5753 17.0844C52.073 18.3569 52.6758 19.8302 53.9818 20.3325C55.2542 20.8348 56.7277 20.2321 57.2299 18.9261C61.2818 8.77974 72.7342 3.05355 83.8517 5.63201H83.8852C94.6343 7.94257 102.202 17.9885 101.499 28.9721C101.365 30.3115 101.131 31.584 100.796 32.8565L80.9383 16.8165C80.0007 16.0798 78.6948 16.0798 77.7906 16.8165L39.4152 47.9924C38.8124 48.4612 38.4775 49.1979 38.4775 49.9346V156.488C38.4775 157.861 39.6161 159 40.989 159H118.008C119.381 159 120.519 157.861 120.519 156.488V49.9346C120.553 49.2314 120.218 48.5281 119.615 48.0258ZM115.563 154.044H115.53H43.534V51.1736L79.398 22.0069L98.8201 37.6785C97.0453 40.8598 94.5004 43.5387 91.4196 45.5479C90.7834 44.4763 90.0132 43.4717 89.0756 42.601C86.3632 39.9221 82.8136 38.5157 79.0966 38.5492C75.4801 38.6162 72.0979 40.0561 69.6534 42.668C67.1084 45.3469 65.702 48.9969 65.836 52.647C65.9364 56.1965 67.4098 59.5117 69.9883 61.9227C72.4663 64.5012 75.7814 65.9411 79.398 66.0081C79.4649 66.0081 79.5319 66.0081 79.5989 66.0081C83.2824 66.0081 86.7315 64.5681 89.4104 61.9227C89.4439 61.8892 89.4439 61.8892 89.4774 61.8557C92.0224 59.1768 93.4288 55.5268 93.2948 51.8768C93.2948 51.3745 93.2279 50.8722 93.1609 50.3699C97.1123 48.0258 100.461 44.7442 102.805 40.8263L115.563 51.1066V154.044ZM80.4361 54.3213C80.503 54.3213 80.5365 54.3213 80.6035 54.3213C83.2489 54.1539 85.8274 53.6181 88.2384 52.7474C88.1379 54.8571 87.2673 56.8998 85.8274 58.4401C84.0861 60.1479 81.8425 61.0521 79.4649 61.0186C77.1879 60.9851 75.1117 60.081 73.5713 58.4401C73.5378 58.4067 73.5044 58.3731 73.4709 58.3397C71.8635 56.8328 70.9259 54.7901 70.8589 52.5465C70.792 50.2025 71.6961 47.8919 73.3034 46.1841C74.8438 44.5767 76.92 43.6726 79.1971 43.6056C79.2305 43.6056 79.2975 43.6056 79.331 43.6056C81.6751 43.6056 83.8852 44.5433 85.593 46.2176C85.6265 46.2511 85.6264 46.2511 85.6599 46.2845C86.1622 46.7534 86.5976 47.2891 86.9659 47.8584C84.8563 48.6621 82.6462 49.1309 80.3021 49.2983C78.8957 49.3988 77.8576 50.5708 77.9246 51.9772C77.9915 53.3167 79.0966 54.3213 80.4361 54.3213Z" fill="#7DC4BB"/>
</g>
<defs>
<clipPath id="clip0_26187_3009">
<rect width="159" height="159" fill="white"/>
</clipPath>
</defs>
</svg>
