<svg width="116" height="116" viewBox="0 0 116 116" fill="none" xmlns="http://www.w3.org/2000/svg">
<g clip-path="url(#clip0_26187_2961)">
<path d="M114.188 14.5H96.0627H87.0002H84.4591L85.1859 1.91762C85.2167 1.41919 85.0373 0.931625 84.6947 0.569125C84.3503 0.204813 83.8736 0 83.3752 0H65.2502H50.7502H32.6252C32.1268 0 31.6501 0.204812 31.3057 0.567312C30.9649 0.929812 30.7855 1.41738 30.8145 1.91581L31.5413 14.5H29.0002H19.9377H1.81269C1.31244 14.5 0.833943 14.7066 0.491381 15.0728C0.148818 15.4389 -0.0288067 15.9283 0.00381831 16.4285L5.22926 97.7536C5.39963 100.871 7.78307 103.312 10.6559 103.312H18.1252V105.125C16.126 105.125 14.5002 106.751 14.5002 108.75V112.375C14.5002 114.374 16.126 116 18.1252 116H30.8127C32.8119 116 34.4377 114.374 34.4377 112.375V108.75C34.4377 106.751 32.8119 105.125 30.8127 105.125V103.312H38.282C41.1222 103.312 43.4766 100.924 43.6941 97.875H50.7502V101.5C48.751 101.5 47.1252 103.126 47.1252 105.125V112.375C47.1252 114.374 48.751 116 50.7502 116H65.2502C67.2494 116 68.8752 114.374 68.8752 112.375V105.125C68.8752 103.126 67.2494 101.5 65.2502 101.5V97.875H72.3081C72.5346 100.933 74.8836 103.312 77.7166 103.312H85.1877V105.125C83.1885 105.125 81.5627 106.751 81.5627 108.75V112.375C81.5627 114.374 83.1885 116 85.1877 116H97.8752C99.8744 116 101.5 114.374 101.5 112.375V108.75C101.5 106.751 99.8744 105.125 97.8752 105.125V103.312H105.345C108.217 103.312 110.601 100.871 110.771 97.7699L115.997 16.4285C116.029 15.9283 115.852 15.4389 115.509 15.0728C115.166 14.7066 114.688 14.5 114.188 14.5ZM88.8127 18.125H94.2502L94.252 47.125H88.8127V18.125ZM67.0627 3.625H81.4539L81.2455 7.25H67.0627V3.625ZM48.9377 3.625V7.25H34.7549L34.5464 3.625H48.9377ZM21.7502 18.125H27.1877L27.1895 47.125H21.7502V18.125ZM3.74482 18.125H18.1252V21.75H3.97863L3.74482 18.125ZM30.8127 112.375H18.1252V108.75H19.9377H29.0002H30.8127V112.375ZM21.7502 105.125V103.312H27.1877V105.125H21.7502ZM38.282 99.6875H10.6559C9.70794 99.6875 8.91407 98.7504 8.84701 97.5379L4.21063 25.375H18.1252V47.125C18.1252 49.1242 19.751 50.75 21.7502 50.75H27.1877C29.1869 50.75 30.8127 49.1242 30.8127 47.125V18.125H31.7516L36.0418 92.4828C36.1868 94.9949 37.8633 97.0322 40.0691 97.6575C39.9622 98.8012 39.2028 99.6875 38.282 99.6875ZM65.252 112.375H50.7502V105.125H52.5627H63.4377H65.2502L65.252 112.375ZM54.3752 101.5V97.875H61.6252V101.5H54.3752ZM74.532 94.25H63.4377H52.5627H41.4684C40.5186 94.25 39.7229 93.3818 39.6595 92.2762L34.9633 10.875H48.9377V25.375C48.9377 26.3755 49.7479 27.1875 50.7502 27.1875C51.7525 27.1875 52.5627 26.3755 52.5627 25.375V3.625H63.4377V43.5H52.5627V32.625C52.5627 31.6245 51.7525 30.8125 50.7502 30.8125C49.7479 30.8125 48.9377 31.6245 48.9377 32.625V43.5C48.9377 45.4992 50.5635 47.125 52.5627 47.125H63.4377C65.4369 47.125 67.0627 45.4992 67.0627 43.5V10.875H81.0371L76.3409 92.2762C76.2774 93.3818 75.4836 94.25 74.532 94.25ZM97.877 112.375H85.1877V108.75H87.0002H96.0627H97.8752L97.877 112.375ZM88.8127 105.125V103.312H94.2502V105.125H88.8127ZM107.153 97.556C107.086 98.7504 106.294 99.6875 105.345 99.6875H77.7184C76.8031 99.6875 76.0473 98.8084 75.9349 97.6575C78.1407 97.0304 79.8154 94.9949 79.9604 92.4846L84.2488 18.125H85.1877V47.125C85.1877 49.1242 86.8135 50.75 88.8127 50.75H94.2502C96.2494 50.75 97.8752 49.1242 97.8752 47.125V25.375H111.79L107.153 97.556ZM112.022 21.75H97.8752V18.125H112.256L112.022 21.75Z" fill="#7DC4BB"/>
</g>
<defs>
<clipPath id="clip0_26187_2961">
<rect width="116" height="116" fill="white"/>
</clipPath>
</defs>
</svg>
