<svg width="136" height="136" viewBox="0 0 136 136" fill="none" xmlns="http://www.w3.org/2000/svg">
<g clip-path="url(#clip0_26187_2981)">
<path d="M56.6621 69.5682L33.4876 44.1401C26.3994 36.3646 14.2829 35.7786 6.4742 42.837C2.68771 46.26 0.467276 50.9462 0.22093 56.0341C-0.0247519 61.1171 1.73154 65.9909 5.16545 69.7591L28.3399 95.1872C32.1088 99.3223 37.2997 101.422 42.5098 101.422C47.0964 101.422 51.698 99.7938 55.3533 96.4903C59.1398 93.0674 61.3603 88.3812 61.6066 83.2932C61.852 78.2103 60.0957 73.3365 56.6621 69.5682ZM7.67838 67.4683C4.85735 64.374 3.41447 60.3717 3.61632 56.1968C3.81885 52.0202 5.6432 48.1706 8.7534 45.3602C15.1783 39.5535 25.146 40.0349 30.9744 46.4309L41.4115 57.8831L18.1255 78.9314L7.67838 67.4683ZM58.2109 83.1305C58.0084 87.3071 56.184 91.1567 53.0741 93.9671C46.6499 99.7738 36.6805 99.2924 30.8532 92.8964L20.416 81.4443L43.702 60.396L54.1492 71.859C56.9699 74.9533 58.4124 78.9556 58.2109 83.1305Z" fill="#7DC4BB"/>
<path d="M131.311 10.3091C128.023 6.41637 123.409 4.02927 118.32 3.59103L83.9661 0.632884C73.4558 -0.263524 64.1721 7.507 63.2634 17.9751C62.8225 23.0481 64.3912 27.9866 67.6813 31.8827C70.9688 35.7771 75.583 38.1625 80.6719 38.6007L115.025 41.5589C115.583 41.607 116.137 41.6303 116.688 41.6303C126.495 41.6303 134.869 34.1287 135.729 24.2184C136.17 19.1454 134.6 14.2052 131.311 10.3091ZM96.448 36.5476L80.9641 35.2143C76.7775 34.8541 72.9827 32.8919 70.2786 29.6898C67.5767 26.4893 66.2886 22.4339 66.6498 18.2705C67.357 10.1248 74.2427 3.96121 82.3087 3.96121C82.7602 3.96121 83.2157 3.97947 83.6739 4.01931L99.1569 5.35264L96.448 36.5476ZM132.342 23.9229C131.596 32.5267 123.949 38.9211 115.317 38.1725L99.8348 36.8391L102.544 5.6438L118.028 6.97713C122.214 7.33901 126.009 9.30115 128.712 12.5017C131.415 15.7025 132.703 19.7596 132.342 23.9229Z" fill="#7DC4BB"/>
<path d="M135.144 85.7833C134.293 80.7584 131.529 76.366 127.359 73.4145C118.76 67.3339 106.799 69.3491 100.692 77.9098L80.7188 105.901C77.7607 110.048 76.5987 115.094 77.4476 120.109C78.2975 125.134 81.0624 129.526 85.2324 132.476C88.5863 134.85 92.4518 135.99 96.2831 135.99C102.271 135.99 108.174 133.203 111.899 127.982L131.872 99.9913C134.83 95.8446 135.992 90.7998 135.144 85.7833ZM109.132 126.007C104.107 133.049 94.2662 134.704 87.1962 129.701C83.7699 127.277 81.4984 123.668 80.7995 119.543C80.103 115.424 81.0568 111.281 83.4861 107.876L92.489 95.2593L118.127 113.4L109.132 126.007ZM129.105 98.0159L120.102 110.633L94.4641 92.4921L103.459 79.8856C106.523 75.5911 111.378 73.3003 116.304 73.3003C119.455 73.3003 122.636 74.2382 125.395 76.1904C128.822 78.6157 131.094 82.2245 131.792 86.3513C132.488 90.4695 131.534 94.6112 129.105 98.0159Z" fill="#7DC4BB"/>
<path d="M37.0779 110.156C34.7224 106.232 30.9724 103.462 26.5186 102.353C17.352 100.074 8.02768 105.65 5.73852 114.783C4.63129 119.197 5.31289 123.78 7.65683 127.685C10.0131 131.61 13.7624 134.381 18.2162 135.49C19.604 135.835 20.9941 136 22.3646 136C30.0448 136 37.053 130.81 38.9969 123.06C40.1035 118.644 39.4219 114.062 37.0779 110.156ZM19.0369 132.19C15.4652 131.302 12.4599 129.081 10.5718 125.935C8.99016 123.3 8.36699 120.282 8.73617 117.283L35.1699 123.858C32.7074 130.192 25.8227 133.879 19.0369 132.19ZM35.9986 120.559L9.56519 113.985C11.6233 108.689 16.767 105.243 22.3685 105.243C23.4685 105.243 24.5847 105.376 25.6985 105.653C29.2692 106.541 32.2755 108.762 34.1629 111.906C35.7446 114.541 36.3681 117.56 35.9986 120.559Z" fill="#7DC4BB"/>
<path d="M94.9526 52.5925C89.623 44.8219 78.9391 42.815 71.1364 48.1221C67.3509 50.6967 64.8001 54.5861 63.9545 59.0748C63.1102 63.5552 64.0664 68.0953 66.6477 71.8586C69.9634 76.6926 75.3502 79.2955 80.8266 79.2955C84.1542 79.2955 87.5157 78.3343 90.4646 76.329C94.2501 73.7543 96.8009 69.8633 97.6458 65.3746C98.4901 60.8959 97.5339 56.3557 94.9526 52.5925ZM68.5896 68.4742C67.1932 65.7826 66.7254 62.7285 67.2955 59.704C67.9727 56.1117 70.0162 52.9959 73.0491 50.9341C75.4156 49.3239 78.1121 48.5537 80.7824 48.5537C84.633 48.5537 88.4271 50.1599 91.0951 53.1682L68.5896 68.4742ZM94.3052 64.7454C93.6286 68.3394 91.5851 71.4552 88.5523 73.5169C82.7744 77.4499 75.0334 76.3702 70.5145 71.2773L93.0111 55.9772C94.4078 58.6685 94.8753 61.7226 94.3052 64.7454Z" fill="#7DC4BB"/>
<path d="M50.7632 7.43853C45.4339 -0.336978 34.7507 -2.33896 26.947 2.96811C23.1615 5.54279 20.6107 9.43387 19.7648 13.9209C18.9208 18.4013 19.8777 22.9414 22.459 26.7047C25.775 31.5386 31.1601 34.1415 36.6372 34.1415C39.9648 34.1415 43.3264 33.1804 46.2752 31.1751C50.0617 28.5987 52.6121 24.7077 53.4571 20.219C54.3007 15.7386 53.3439 11.2001 50.7632 7.43853ZM24.4005 23.3199C23.0041 20.6287 22.5367 17.5746 23.1057 14.5517C23.783 10.9578 25.8265 7.84191 28.8593 5.78017C31.2258 4.16996 33.9214 3.39805 36.5923 3.39805C40.4419 3.39805 44.2364 5.00395 46.9043 8.01289L24.4005 23.3199ZM50.1168 19.5898C49.4405 23.1838 47.397 26.2996 44.3632 28.363C38.586 32.2946 30.8434 31.2162 26.3258 26.1233L48.8217 10.822C50.2181 13.5125 50.6859 16.5666 50.1168 19.5898Z" fill="#7DC4BB"/>
<path d="M46.7948 79.1995H42.8529V75.2819C42.8529 74.3423 42.092 73.582 41.1531 73.582C40.2145 73.582 39.4532 74.3423 39.4532 75.2819V79.1995H35.5124C34.5738 79.1995 33.8125 79.9598 33.8125 80.8994C33.8125 81.8389 34.5738 82.5992 35.5124 82.5992H39.4532V86.5169C39.4532 87.4564 40.2145 88.2167 41.1531 88.2167C42.092 88.2167 42.8529 87.4564 42.8529 86.5169V82.5992H46.7948C47.7334 82.5992 48.4947 81.8389 48.4947 80.8994C48.4947 79.9598 47.7334 79.1995 46.7948 79.1995Z" fill="#7DC4BB"/>
<path d="M122.288 86.7405H118.346V82.8229C118.346 81.8833 117.585 81.123 116.646 81.123C115.707 81.123 114.946 81.8833 114.946 82.8229V86.7405H111.006C110.067 86.7405 109.306 87.5008 109.306 88.4404C109.306 89.38 110.067 90.1402 111.006 90.1402H114.946V94.0579C114.946 94.9974 115.707 95.7577 116.646 95.7577C117.585 95.7577 118.346 94.9974 118.346 94.0579V90.1402H122.288C123.227 90.1402 123.987 89.38 123.987 88.4404C123.987 87.5008 123.226 86.7405 122.288 86.7405Z" fill="#7DC4BB"/>
<path d="M122.288 21.6663H118.346V17.7487C118.346 16.8091 117.585 16.0488 116.646 16.0488C115.707 16.0488 114.946 16.8091 114.946 17.7487V21.6663H111.006C110.067 21.6663 109.306 22.4266 109.306 23.3662C109.306 24.3057 110.067 25.066 111.006 25.066H114.946V28.9837C114.946 29.9232 115.707 30.6835 116.646 30.6835C117.585 30.6835 118.346 29.9232 118.346 28.9837V25.066H122.288C123.227 25.066 123.987 24.3057 123.987 23.3662C123.987 22.4266 123.226 21.6663 122.288 21.6663Z" fill="#7DC4BB"/>
</g>
<defs>
<clipPath id="clip0_26187_2981">
<rect width="136" height="136" fill="white"/>
</clipPath>
</defs>
</svg>
