<svg width="139" height="139" viewBox="0 0 139 139" fill="none" xmlns="http://www.w3.org/2000/svg">
<path fill-rule="evenodd" clip-rule="evenodd" d="M107.236 139H31.7637C26.877 139 23.3477 135.199 23.3477 130.584V8.41602C23.3477 3.80078 26.877 0 31.7637 0H107.236C112.123 0 115.652 3.80078 115.652 8.41602V130.584C115.652 135.199 112.123 139 107.236 139ZM31.7637 3.80078C29.0488 3.80078 27.1484 5.97266 27.1484 8.41602V130.584C27.1484 133.027 29.0488 135.199 31.7637 135.199H107.236C109.951 135.199 111.852 133.027 111.852 130.584V8.41602C111.852 5.97266 109.951 3.80078 107.236 3.80078H31.7637Z" fill="#7DC4BB"/>
<path fill-rule="evenodd" clip-rule="evenodd" d="M113.752 19.2754H25.248C24.1621 19.2754 23.3477 18.4609 23.3477 17.375C23.3477 16.2891 24.1621 15.4746 25.248 15.4746H113.752C114.838 15.4746 115.652 16.2891 115.652 17.375C115.652 18.4609 114.838 19.2754 113.752 19.2754Z" fill="#7DC4BB"/>
<path fill-rule="evenodd" clip-rule="evenodd" d="M113.752 123.525H25.248C24.1621 123.525 23.3477 122.711 23.3477 121.625C23.3477 120.539 24.1621 119.725 25.248 119.725H113.752C114.838 119.725 115.652 120.539 115.652 121.625C115.652 122.711 114.838 123.525 113.752 123.525Z" fill="#7DC4BB"/>
<path fill-rule="evenodd" clip-rule="evenodd" d="M74.3867 11.4023H64.6133C63.7988 11.4023 62.7129 10.5879 62.7129 9.50195C62.7129 8.41602 63.7988 7.60156 64.6133 7.60156H74.3867C75.2012 7.60156 76.2871 8.41602 76.2871 9.50195C76.2871 10.5879 75.2012 11.4023 74.3867 11.4023Z" fill="#7DC4BB"/>
<path fill-rule="evenodd" clip-rule="evenodd" d="M74.3867 131.398H64.6133C63.7988 131.398 62.7129 130.584 62.7129 129.498C62.7129 128.412 63.7988 127.598 64.6133 127.598H74.3867C75.2012 127.598 76.2871 128.412 76.2871 129.498C76.2871 130.584 75.2012 131.398 74.3867 131.398Z" fill="#7DC4BB"/>
<path fill-rule="evenodd" clip-rule="evenodd" d="M50.7676 112.395H37.1934C36.1074 112.395 35.293 111.58 35.293 110.494V100.721C35.293 99.6348 36.1074 98.8203 37.1934 98.8203H50.7676C51.582 98.8203 52.668 99.6348 52.668 100.721V110.494C52.668 111.58 51.582 112.395 50.7676 112.395ZM39.0938 108.594H48.8672V102.621H39.0938V108.594Z" fill="#7DC4BB"/>
<path fill-rule="evenodd" clip-rule="evenodd" d="M76.2871 112.395H62.7129C61.627 112.395 60.8125 111.58 60.8125 110.494V100.721C60.8125 99.6348 61.627 98.8203 62.7129 98.8203H76.2871C77.373 98.8203 78.1875 99.6348 78.1875 100.721V110.494C78.1875 111.58 77.373 112.395 76.2871 112.395ZM64.6133 108.594H74.3867V102.621H64.6133V108.594Z" fill="#7DC4BB"/>
<path fill-rule="evenodd" clip-rule="evenodd" d="M101.807 112.395H88.2324C87.418 112.395 86.332 111.58 86.332 110.494V100.721C86.332 99.6348 87.418 98.8203 88.2324 98.8203H101.807C102.893 98.8203 103.707 99.6348 103.707 100.721V110.494C103.707 111.58 102.893 112.395 101.807 112.395ZM90.1328 108.594H99.9062V102.621H90.1328V108.594Z" fill="#7DC4BB"/>
<path fill-rule="evenodd" clip-rule="evenodd" d="M43.1657 49.4097C42.8942 49.4097 42.6227 49.4097 42.6227 49.4097C39.6364 48.5953 37.736 46.1519 37.4645 42.3512C36.9215 37.4644 38.8219 30.9488 43.1657 28.7769C53.2106 23.0758 60.8122 27.4195 62.7126 29.0484C67.3278 29.3199 70.3141 32.3062 71.1286 36.9215C71.943 41.2652 70.3141 46.6949 66.2419 48.3238C65.1559 48.5953 64.07 48.0523 63.7985 46.9664C63.2555 46.1519 63.7985 45.066 64.8844 44.523C66.7848 43.9801 67.8708 40.7222 67.3278 37.7359C67.0563 35.8355 65.9704 32.8492 61.8981 32.5777C61.6266 32.5777 61.0837 32.5777 60.8122 32.3062C60.5407 32.0347 54.2965 26.8765 45.0661 32.0347V32.3062C42.6227 33.3922 40.7223 38.0074 41.2653 41.8082C41.2653 43.1656 41.8083 45.3375 43.4372 45.609C44.5231 45.8805 45.0661 46.9664 44.7946 48.0523C44.7946 48.8668 43.9801 49.4097 43.1657 49.4097Z" fill="#7DC4BB"/>
<path fill-rule="evenodd" clip-rule="evenodd" d="M54.2969 63.5274C46.9668 63.5274 41.2656 57.5547 41.2656 50.4962V42.3516C41.2656 41.5372 41.8086 40.7227 42.623 40.4512C46.1523 39.9083 55.6543 38.0079 58.6406 34.7501C58.9121 34.2071 59.7266 33.9356 60.541 34.2071C61.084 34.4786 61.627 35.0215 61.8984 35.836C61.8984 35.836 62.4414 39.9083 65.9707 40.4512C66.7852 40.7227 67.3281 41.5372 67.3281 42.3516V50.4962C67.3281 57.5547 61.627 63.5274 54.2969 63.5274ZM45.0664 43.9805V50.4962C45.0664 55.3829 49.1387 59.7266 54.2969 59.7266C59.4551 59.7266 63.5273 55.3829 63.5273 50.4962V43.709C61.084 42.8946 59.7266 40.9942 58.9121 39.3653C54.8398 41.8087 48.0527 43.4376 45.0664 43.9805Z" fill="#7DC4BB"/>
<path fill-rule="evenodd" clip-rule="evenodd" d="M54.2969 80.0879C53.4824 80.0879 52.9395 79.8164 52.668 79.2734L46.1523 67.8711C45.6094 66.7852 45.8809 65.6992 46.9668 65.1562C47.7812 64.6133 48.8672 64.8848 49.4102 65.9707L54.2969 74.3867L59.1836 65.9707C59.7266 65.1562 60.8125 64.6133 61.627 65.1562C62.7129 65.6992 62.9844 66.7852 62.4414 67.8711L55.9258 79.2734C55.6543 79.8164 54.8398 80.0879 54.2969 80.0879Z" fill="#7DC4BB"/>
<path fill-rule="evenodd" clip-rule="evenodd" d="M76.0156 91.4902H32.3066C31.4922 91.4902 30.4062 90.6758 30.4062 89.5898V76.8301C30.4062 69.5 38.2793 65.9707 45.8809 65.1562V59.4551C45.8809 58.3691 46.6953 57.5547 47.7812 57.5547C48.8672 57.5547 49.6816 58.3691 49.6816 59.4551V66.7852C49.6816 67.8711 48.8672 68.6855 47.7812 68.6855C46.4238 68.957 34.207 69.7715 34.207 76.8301V87.6895H74.1152V76.8301C74.1152 69.7715 62.1699 68.957 60.541 68.6855C59.7266 68.6855 58.9121 67.8711 58.9121 66.7852V59.4551C58.9121 58.3691 59.7266 57.5547 60.8125 57.5547C61.8984 57.5547 62.7129 58.3691 62.7129 59.4551V65.1562C70.3145 65.9707 77.916 69.5 77.916 76.8301V89.5898C77.916 90.6758 77.1016 91.4902 76.0156 91.4902Z" fill="#7DC4BB"/>
<path fill-rule="evenodd" clip-rule="evenodd" d="M41.8086 91.4902C40.7227 91.4902 39.9082 90.6758 39.9082 89.5898V78.1875C39.9082 77.1016 40.7227 76.2871 41.8086 76.2871C42.8945 76.2871 43.709 77.1016 43.709 78.1875V89.5898C43.709 90.6758 42.8945 91.4902 41.8086 91.4902Z" fill="#7DC4BB"/>
<path fill-rule="evenodd" clip-rule="evenodd" d="M66.7852 91.4902C65.6992 91.4902 64.8848 90.6758 64.8848 89.5898V78.1875C64.8848 77.1016 65.6992 76.2871 66.7852 76.2871C67.8711 76.2871 68.6855 77.1016 68.6855 78.1875V89.5898C68.6855 90.6758 67.8711 91.4902 66.7852 91.4902Z" fill="#7DC4BB"/>
<path fill-rule="evenodd" clip-rule="evenodd" d="M105.879 38.2793H84.1602C83.0742 38.2793 82.2598 37.4648 82.2598 36.3789C82.2598 35.293 83.0742 34.4785 84.1602 34.4785H105.879C106.965 34.4785 107.779 35.293 107.779 36.3789C107.779 37.4648 106.965 38.2793 105.879 38.2793Z" fill="#7DC4BB"/>
<path fill-rule="evenodd" clip-rule="evenodd" d="M105.879 51.582H84.1602C83.0742 51.582 82.2598 50.7676 82.2598 49.6816C82.2598 48.5957 83.0742 47.7812 84.1602 47.7812H105.879C106.965 47.7812 107.779 48.5957 107.779 49.6816C107.779 50.7676 106.965 51.582 105.879 51.582Z" fill="#7DC4BB"/>
<path fill-rule="evenodd" clip-rule="evenodd" d="M105.879 64.8848H84.1602C83.0742 64.8848 82.2598 64.0703 82.2598 62.9844C82.2598 61.8984 83.0742 61.084 84.1602 61.084H105.879C106.965 61.084 107.779 61.8984 107.779 62.9844C107.779 64.0703 106.965 64.8848 105.879 64.8848Z" fill="#7DC4BB"/>
<path fill-rule="evenodd" clip-rule="evenodd" d="M105.879 78.1875H84.1602C83.0742 78.1875 82.2598 77.373 82.2598 76.2871C82.2598 75.2012 83.0742 74.3867 84.1602 74.3867H105.879C106.965 74.3867 107.779 75.2012 107.779 76.2871C107.779 77.373 106.965 78.1875 105.879 78.1875Z" fill="#7DC4BB"/>
<path fill-rule="evenodd" clip-rule="evenodd" d="M105.879 91.4902H84.1602C83.0742 91.4902 82.2598 90.6758 82.2598 89.5898C82.2598 88.5039 83.0742 87.6895 84.1602 87.6895H105.879C106.965 87.6895 107.779 88.5039 107.779 89.5898C107.779 90.6758 106.965 91.4902 105.879 91.4902Z" fill="#7DC4BB"/>
</svg>
