<svg width="120" height="110" viewBox="0 0 120 110" fill="none" xmlns="http://www.w3.org/2000/svg">
<path d="M48.682 88.9587C47.6887 88.9587 46.784 88.306 46.4648 87.3675C46.1451 86.4279 46.4692 85.3613 47.2553 84.7554C48.0006 84.1812 49.042 84.1205 49.8552 84.5879C50.6903 85.0679 51.1527 86.0461 50.995 86.9965C50.8101 88.1119 49.8133 88.9587 48.682 88.9587Z" fill="#7DC4BB"/>
<path d="M119.314 75.1585C116.483 72.3277 112.725 70.6006 108.734 70.2957C104.74 69.9898 100.765 71.1272 97.5375 73.4953C97.5206 73.5078 97.5035 73.5204 97.4869 73.5333L86.1914 82.298C84.2198 75.1369 77.6906 69.8428 70.0446 69.8428L58.1974 69.7775C54.6916 65.03 49.1895 62.2334 43.233 62.2334C36.6213 62.2334 31.3102 65.6782 28.1337 71.9764L21.6253 71.9424V69.814C21.6253 68.5198 20.576 67.4703 19.2816 67.4703H2.34375C1.0493 67.4703 0 68.5198 0 69.814V99.8705C0 101.165 1.0493 102.214 2.34375 102.214H19.282C20.5765 102.214 21.6258 101.165 21.6258 99.8705V98.2093L40.2293 108.701C40.3106 108.747 40.3945 108.788 40.4805 108.823C42.147 109.516 43.9073 109.868 45.713 109.868H75.1622C78.2728 109.868 81.3178 108.79 83.7218 106.845L119.116 78.6488C119.639 78.233 119.959 77.6143 119.996 76.9477C120.034 76.2814 119.786 75.6307 119.314 75.1585ZM16.9383 97.5268H4.6875V72.1578H16.9383V97.5268ZM80.787 103.189C79.2005 104.473 77.2031 105.18 75.1622 105.18H45.713C44.5725 105.18 43.4595 104.967 42.4029 104.545L21.6258 92.828V76.6304L29.6135 76.6721C30.5613 76.6695 31.4123 76.115 31.7822 75.2464C34.1341 69.7224 37.987 66.9211 43.2337 66.9211C48.0173 66.9211 52.41 69.3336 54.9846 73.3739C55.4126 74.0454 56.152 74.4539 56.9482 74.4584L70.0322 74.5308C75.8027 74.5308 80.6857 78.7238 81.8498 84.2707H59.3213C58.0268 84.2707 56.9775 85.3203 56.9775 86.6145C56.9775 87.9087 58.0268 88.9582 59.3213 88.9582H84.4514C84.8887 88.9582 85.298 88.8382 85.6484 88.6296C85.6512 88.628 85.654 88.6264 85.6568 88.6247C85.6634 88.6207 85.6697 88.6168 85.6763 88.6128C85.7513 88.5671 85.8239 88.5171 85.894 88.4628L100.335 77.2566C104.441 74.2608 109.798 74.1711 113.917 76.7986L80.787 103.189Z" fill="#7DC4BB"/>
<path d="M39.0562 44.5731C45.2216 49.3239 52.6033 51.8347 60.403 51.8347C61.0234 51.8347 61.6438 51.8183 62.2633 51.7857C61.5198 53.544 61.1085 55.4757 61.1085 57.5017V57.8024C61.1085 58.5294 61.4458 59.2152 62.0216 59.6589C68.1873 64.4099 75.569 66.9207 83.3683 66.9207C91.1678 66.9207 98.5495 64.4097 104.715 59.6589C105.291 59.2152 105.628 58.5294 105.628 57.8024V57.5017C105.628 50.6207 100.884 44.8269 94.4943 43.2205C97.7085 40.2711 99.7265 36.0374 99.7265 31.3414C99.7265 22.4507 92.4934 15.2176 83.6024 15.2176C81.0613 15.2176 78.6555 15.8085 76.5154 16.8604C76.5229 16.6597 76.5266 16.4582 76.5266 16.2557C76.5266 7.36488 69.2936 0.131836 60.4028 0.131836C51.512 0.131836 44.2787 7.36488 44.2787 16.2557C44.2787 20.9277 46.2763 25.142 49.462 28.0895C42.9791 29.6298 38.1426 35.4686 38.1426 42.4157V42.7166C38.1428 43.4434 38.4803 44.1294 39.0562 44.5731ZM100.905 56.6488C95.7653 60.3064 89.7276 62.2332 83.3683 62.2332C77.009 62.2332 70.9713 60.3064 65.8319 56.6488C66.2659 51.5122 70.585 47.4653 75.832 47.4653H90.9051C96.1518 47.4655 100.471 51.5122 100.905 56.6488ZM95.0392 31.3414C95.0392 37.6473 89.9087 42.7778 83.6027 42.7778C77.2968 42.7778 72.1663 37.6473 72.1663 31.3414C72.1663 25.0356 77.2968 19.9051 83.6027 19.9051C89.9087 19.9051 95.0392 25.0354 95.0392 31.3414ZM48.9665 16.2557C48.9665 9.9498 54.097 4.81934 60.403 4.81934C66.7089 4.81934 71.8394 9.9498 71.8394 16.2557C71.8394 22.5615 66.7089 27.692 60.403 27.692C54.0967 27.6918 48.9665 22.5615 48.9665 16.2557ZM52.8665 32.3795H67.5119C67.7821 36.613 69.6937 40.4073 72.6154 43.1317C70.06 43.7033 67.7535 44.9411 65.8879 46.6525C64.09 46.9808 62.2464 47.1472 60.403 47.1472C54.0435 47.1472 48.0058 45.2204 42.8664 41.563C43.3002 36.4267 47.6195 32.3795 52.8665 32.3795Z" fill="#7DC4BB"/>
</svg>
