<!-- icon666.com - MILLIONS vector ICONS FREE --><svg version="1.1" id="Capa_1" xmlns="http://www.w3.org/2000/svg" xmlns:xlink="http://www.w3.org/1999/xlink" x="0px" y="0px" viewBox="0 0 417.959 417.959" style="enable-background:new 0 0 417.959 417.959;" xml:space="preserve"><g><linearGradient id="SVGID_1_" gradientUnits="userSpaceOnUse" x1="-37.6415" y1="555.5922" x2="-37.6415" y2="470.4151" gradientTransform="matrix(5.2245 0 0 -5.2245 405.6372 2893.9761)"><stop offset="0" style="stop-color:#00EFD1"></stop><stop offset="1" style="stop-color:#00ACEA"></stop></linearGradient><path style="fill:url(#SVGID_1_);" d="M379.298,2.612c-4.702-3.135-10.449-3.135-15.151-1.045l-47.02,22.465L269.584,1.567 c-4.18-2.09-9.404-2.09-13.584,0l-47.02,22.465L161.437,1.567c-4.18-2.09-9.404-2.09-13.584,0l-47.02,22.465L53.812,1.567 c-4.702-2.09-10.449-2.09-15.151,1.045c-4.702,2.612-7.314,7.837-7.314,13.061v386.612c0,8.882,6.792,15.673,15.673,15.673h323.918 c8.882,0,15.673-6.792,15.673-15.673V15.673C386.612,10.449,384,5.224,379.298,2.612z M355.265,386.612H62.694V40.229L94.041,55.38 c4.18,2.09,9.404,2.09,13.584,0l47.02-22.465l47.543,22.465c4.18,2.09,9.404,2.09,13.584,0l47.02-22.465l47.543,22.465 c4.18,2.09,9.404,2.09,13.584,0l31.347-15.151L355.265,386.612L355.265,386.612z"></path><linearGradient id="SVGID_2_" gradientUnits="userSpaceOnUse" x1="-47.9415" y1="555.5922" x2="-47.9415" y2="470.4151" gradientTransform="matrix(5.2245 0 0 -5.2245 405.6372 2893.9761)"><stop offset="0" style="stop-color:#00EFD1"></stop><stop offset="1" style="stop-color:#00ACEA"></stop></linearGradient><path style="fill:url(#SVGID_2_);" d="M155.167,208.98c27.167,0,49.11-21.943,49.11-49.11s-21.943-49.11-49.11-49.11 s-49.11,21.943-49.11,49.11C106.057,187.037,128,208.98,155.167,208.98z M155.167,142.106c9.927,0,17.763,7.837,17.763,17.763 c0,9.927-7.837,17.763-17.763,17.763c-9.927,0-17.763-7.837-17.763-17.763C137.404,149.943,145.241,142.106,155.167,142.106z"></path><linearGradient id="SVGID_3_" gradientUnits="userSpaceOnUse" x1="-27.3415" y1="555.5922" x2="-27.3415" y2="470.4151" gradientTransform="matrix(5.2245 0 0 -5.2245 405.6372 2893.9761)"><stop offset="0" style="stop-color:#00EFD1"></stop><stop offset="1" style="stop-color:#00ACEA"></stop></linearGradient><path style="fill:url(#SVGID_3_);" d="M262.792,218.384c-27.167,0-49.11,21.943-49.11,49.11s21.943,49.11,49.11,49.11 s49.11-21.943,49.11-49.11C311.902,240.326,289.959,218.384,262.792,218.384z M262.792,285.257 c-9.927,0-17.763-7.837-17.763-17.763c0-9.927,7.837-17.763,17.763-17.763c9.927,0,17.763,7.837,17.763,17.763 C280.555,277.42,272.718,285.257,262.792,285.257z"></path><linearGradient id="SVGID_4_" gradientUnits="userSpaceOnUse" x1="-37.1915" y1="555.5922" x2="-37.1915" y2="470.4151" gradientTransform="matrix(5.2245 0 0 -5.2245 405.6372 2893.9761)"><stop offset="0" style="stop-color:#00EFD1"></stop><stop offset="1" style="stop-color:#00ACEA"></stop></linearGradient><path style="fill:url(#SVGID_4_);" d="M298.841,123.82c-6.269-6.269-16.196-6.269-21.943,0L123.82,277.42 c-6.269,6.269-6.269,16.196,0,21.943c3.135,3.135,7.314,4.702,10.971,4.702c4.18,0,7.837-1.567,10.971-4.702l153.078-153.6 C305.11,139.494,305.11,129.567,298.841,123.82z"></path></g></svg>